<svg width="375" height="779" viewBox="0 0 375 779" fill="none" xmlns="http://www.w3.org/2000/svg">
<path d="M76.6006 266.8C23.1397 306.896 -52.7033 296.062 -92.7996 242.601C-132.896 189.14 -122.062 113.297 -68.6007 73.2005C-15.1398 33.1043 60.7033 43.9385 100.799 97.3994C140.896 150.86 130.062 226.703 76.6006 266.8ZM-39.0632 112.583C-70.7736 136.366 -77.1999 181.353 -53.4168 213.063C-29.6337 244.774 15.3527 251.2 47.0631 227.417C78.7735 203.634 85.1999 158.647 61.4167 126.937C37.6336 95.2264 -7.35279 88.8001 -39.0632 112.583Z" fill="url(#paint0_linear_494_3)" fill-opacity="0.55"/>
<path d="M437.789 542.5C495.662 575.913 515.491 649.916 482.078 707.789C448.665 765.662 374.662 785.491 316.789 752.078C258.916 718.665 239.087 644.662 272.5 586.789C305.913 528.916 379.916 509.087 437.789 542.5ZM341.403 709.445C375.731 729.264 419.626 717.502 439.445 683.175C459.264 648.847 447.502 604.952 413.175 585.133C378.847 565.314 334.952 577.076 315.133 611.403C295.314 645.731 307.076 689.626 341.403 709.445Z" fill="url(#paint1_linear_494_3)" fill-opacity="0.95"/>
<defs>
<linearGradient id="paint0_linear_494_3" x1="65.3459" y1="-320.475" x2="-88.4989" y2="340.001" gradientUnits="userSpaceOnUse">
<stop stop-color="#29BFC0"/>
<stop offset="1" stop-color="white" stop-opacity="0.45"/>
</linearGradient>
<linearGradient id="paint1_linear_494_3" x1="-97.858" y1="783.54" x2="569.96" y2="665.574" gradientUnits="userSpaceOnUse">
<stop stop-color="#29BFC0"/>
<stop offset="1" stop-color="white" stop-opacity="0.45"/>
</linearGradient>
</defs>
</svg>
